<svg width="128" height="128" viewBox="0 0 128 128" fill="none" xmlns="http://www.w3.org/2000/svg">
<style>
    path {
			fill: #0075FF;
		}
    @media (prefers-color-scheme: dark) {
      path {
				fill: #FFFFFF;
			}
    }
  </style>
<path fill-rule="evenodd" clip-rule="evenodd" d="M0.720674 80.0807H3.67718C4.07441 80.0807 4.39785 80.4035 4.39785 80.8049V91.8097C4.39785 92.2089 4.07659 92.5339 3.67718 92.5339H0.720674C0.323435 92.5339 0 92.211 0 91.8097V80.8049C0 80.4057 0.321264 80.0807 0.720674 80.0807ZM7.55406 65.6185H9.86803C10.4433 65.6185 10.9078 66.0875 10.9078 66.6634V80.0807C10.9078 80.6588 10.4411 81.1256 9.86803 81.1256H7.55406C6.97882 81.1256 6.51429 80.6566 6.51429 80.0807V66.6634C6.51429 66.0853 6.98099 65.6185 7.55406 65.6185ZM7.23279 82.899H10.1893C10.5865 82.899 10.91 83.2218 10.91 83.6232V95.2758C10.91 95.675 10.5887 96 10.1893 96H7.23279C6.83555 96 6.51212 95.6772 6.51212 95.2758V83.6232C6.51212 83.224 6.83338 82.899 7.23279 82.899ZM13.7471 51.0211H16.7036C17.1008 51.0211 17.4243 51.344 17.4243 51.7453V73.5651C17.4243 73.9643 17.103 74.2893 16.7036 74.2893H13.7471C13.3498 74.2893 13.0264 73.9665 13.0264 73.5651V51.7453C13.0264 51.3461 13.3477 51.0211 13.7471 51.0211ZM13.7471 76.3376H16.7036C17.1008 76.3376 17.4243 76.6604 17.4243 77.0618V83.8282C17.4243 84.2274 17.103 84.5524 16.7036 84.5524H13.7471C13.3498 84.5524 13.0264 84.2296 13.0264 83.8282V77.0618C13.0264 76.6626 13.3477 76.3376 13.7471 76.3376ZM14.0683 90.0668H16.3823C16.9576 90.0668 17.4221 90.5358 17.4221 91.1117V94.9508C17.4221 95.5288 16.9554 95.9956 16.3823 95.9956H14.0683C13.4931 95.9956 13.0286 95.5266 13.0286 94.9508V91.1117C13.0286 90.5336 13.4953 90.0668 14.0683 90.0668ZM20.2614 40.6729H23.2179C23.6151 40.6729 23.9385 40.9958 23.9385 41.3971V56.83C23.9385 57.2292 23.6173 57.5542 23.2179 57.5542H20.2614C19.8641 57.5542 19.5407 57.2314 19.5407 56.83V41.3928C19.5407 40.9936 19.862 40.6686 20.2614 40.6686V40.6729ZM20.2614 59.4323H23.22C23.6173 59.4323 23.9385 59.7551 23.9385 60.1543V81.0732C23.9385 81.4724 23.6173 81.7952 23.22 81.7952H20.2614C19.8641 81.7952 19.5429 81.4724 19.5429 81.0732V60.1543C19.5429 59.7551 19.8641 59.4323 20.2614 59.4323ZM26.7757 37.4882H29.7322C30.1294 37.4882 30.4528 37.811 30.4528 38.2124V48.5039C30.4528 48.9031 30.1316 49.2281 29.7322 49.2281H26.7757C26.3784 49.2281 26.055 48.9052 26.055 48.5039V38.2102C26.055 37.811 26.3762 37.486 26.7757 37.486V37.4882ZM26.7757 51.0364H29.7322C30.1294 51.0364 30.4528 51.3592 30.4528 51.7606V66.5674C30.4528 66.9666 30.1316 67.2916 29.7322 67.2916H26.7757C26.3784 67.2916 26.055 66.9688 26.055 66.5674V51.7606C26.055 51.3614 26.3762 51.0364 26.7757 51.0364ZM26.7757 69.4228H29.7322C30.1294 69.4228 30.4528 69.7456 30.4528 70.147V83.4508C30.4528 83.85 30.1316 84.175 29.7322 84.175H26.7757C26.3784 84.175 26.055 83.8522 26.055 83.4508V70.147C26.055 69.7478 26.3762 69.4228 26.7757 69.4228ZM33.6069 34.9055H35.9208C36.4961 34.9055 36.9606 35.3745 36.9606 35.9504V55.2725C36.9606 55.8506 36.4939 56.3174 35.9208 56.3174H33.6069C33.0316 56.3174 32.5671 55.8484 32.5671 55.2725V35.9504C32.5671 35.3723 33.0338 34.9055 33.6069 34.9055ZM33.6069 58.4529H35.9208C36.4961 58.4529 36.9606 58.9219 36.9606 59.4977V63.9825C36.9606 64.5606 36.4939 65.0274 35.9208 65.0274H33.6069C33.0316 65.0274 32.5671 64.5584 32.5671 63.9825V59.4977C32.5671 58.9197 33.0338 58.4529 33.6069 58.4529ZM33.6069 66.5194H35.9187C36.4939 66.5194 36.9584 66.9884 36.9584 67.5643V87.5321C36.9584 88.1102 36.4917 88.577 35.9187 88.577H33.6069C33.0316 88.577 32.5671 88.108 32.5671 87.5321V67.5643C32.5671 66.9862 33.0338 66.5194 33.6069 66.5194ZM40.1212 32.325H42.4351C43.0104 32.325 43.4749 32.794 43.4749 33.3699V37.209C43.4749 37.787 43.0082 38.2539 42.4351 38.2539H40.1212C39.5459 38.2539 39.0814 37.7849 39.0814 37.209V33.3721C39.0814 32.794 39.5481 32.3272 40.1212 32.3272V32.325ZM40.1212 40.0643H42.4351C43.0104 40.0643 43.4749 40.5333 43.4749 41.1092V70.7534C43.4749 71.3314 43.0082 71.7982 42.4351 71.7982H40.1212C39.5459 71.7982 39.0814 71.3292 39.0814 70.7534V41.1114C39.0814 40.5333 39.5481 40.0665 40.1212 40.0665V40.0643ZM40.1212 73.9337H42.4351C43.0104 73.9337 43.4749 74.4027 43.4749 74.9786V83.0102C43.4749 83.5883 43.0082 84.0551 42.4351 84.0551H40.1212C39.5459 84.0551 39.0814 83.5861 39.0814 83.0102V74.9786C39.0814 74.4005 39.5481 73.9337 40.1212 73.9337ZM40.1212 86.1928H42.4351C43.0104 86.1928 43.4749 86.6618 43.4749 87.2376V92.3681C43.4749 92.9461 43.0082 93.4129 42.4351 93.4129H40.1212C39.5459 93.4129 39.0814 92.944 39.0814 92.3681V87.2376C39.0814 86.6596 39.5481 86.1928 40.1212 86.1928ZM46.6354 84.5786H48.9494C49.5246 84.5786 49.9892 85.0476 49.9892 85.6234V94.9486C49.9892 95.5267 49.5225 95.9935 48.9494 95.9935H46.6354C46.0602 95.9935 45.5957 95.5245 45.5957 94.9486V85.6234C45.5957 85.0454 46.0624 84.5786 46.6354 84.5786ZM46.6354 52.3234H48.9494C49.5246 52.3234 49.9892 52.7924 49.9892 53.3682V76.2372C49.9892 76.8153 49.5225 77.2821 48.9494 77.2821H46.6354C46.0602 77.2821 45.5957 76.8131 45.5957 76.2372V53.3682C45.5957 52.7902 46.0624 52.3234 46.6354 52.3234ZM46.6354 32H48.9494C49.5246 32 49.9892 32.469 49.9892 33.0449V49.1408C49.9892 49.7189 49.5225 50.1857 48.9494 50.1857H46.6354C46.0602 50.1857 45.5957 49.7167 45.5957 49.1408V33.047C45.5957 32.469 46.0624 32.0022 46.6354 32.0022V32ZM53.1497 89.4168H55.4637C56.0389 89.4168 56.5035 89.8858 56.5035 90.4616V94.9464C56.5035 95.5245 56.0368 95.9913 55.4637 95.9913H53.1497C52.5745 95.9913 52.11 95.5223 52.11 94.9464V90.4616C52.11 89.8836 52.5767 89.4168 53.1497 89.4168ZM53.1497 32.3228H55.4637C56.0389 32.3228 56.5035 32.7918 56.5035 33.3677V60.7542C56.5035 61.3322 56.0368 61.799 55.4637 61.799H53.1497C52.5745 61.799 52.11 61.3301 52.11 60.7542V33.3699C52.11 32.7918 52.5767 32.325 53.1497 32.325V32.3228ZM53.1497 63.9346H55.4637C56.0389 63.9346 56.5035 64.4035 56.5035 64.9794V76.2372C56.5035 76.8153 56.0368 77.2821 55.4637 77.2821H53.1497C52.5745 77.2821 52.11 76.8131 52.11 76.2372V64.9794C52.11 64.4014 52.5767 63.9346 53.1497 63.9346ZM59.6597 33.6142H61.9736C62.5489 33.6142 63.0134 34.0832 63.0134 34.659V42.3678C63.0134 42.9459 62.5467 43.4127 61.9736 43.4127H59.6597C59.0844 43.4127 58.6199 42.9437 58.6199 42.3678V34.6612C58.6199 34.0832 59.0866 33.6164 59.6597 33.6164V33.6142ZM59.6597 45.5482H61.9736C62.5489 45.5482 63.0134 46.0172 63.0134 46.593V76.2372C63.0134 76.8153 62.5467 77.2821 61.9736 77.2821H59.6597C59.0844 77.2821 58.6199 76.8131 58.6199 76.2372V46.5952C58.6199 46.0172 59.0866 45.5504 59.6597 45.5504V45.5482ZM66.1718 34.2599H68.4858C69.061 34.2599 69.5255 34.7288 69.5255 35.3047V52.3692C69.5255 52.9472 69.0588 53.414 68.4858 53.414H66.1718C65.5966 53.414 65.132 52.9451 65.132 52.3692V35.3069C65.132 34.7288 65.5987 34.262 66.1718 34.262V34.2599ZM66.1718 55.5496H68.4858C69.061 55.5496 69.5255 56.0185 69.5255 56.5944V70.7577C69.5255 71.3358 69.0588 71.8026 68.4858 71.8026H66.1718C65.5966 71.8026 65.132 71.3336 65.132 70.7577V56.5944C65.132 56.0164 65.5987 55.5496 66.1718 55.5496ZM66.1718 73.9337H68.4858C69.061 73.9337 69.5255 74.4027 69.5255 74.9786V81.3982C69.5255 81.9763 69.0588 82.4431 68.4858 82.4431H66.1718C65.5966 82.4431 65.132 81.9741 65.132 81.3982V74.9786C65.132 74.4005 65.5987 73.9337 66.1718 73.9337ZM72.6448 35.2284H74.9588C75.534 35.2284 75.9986 35.6973 75.9986 36.2732V62.6912C75.9986 63.2693 75.5319 63.7361 74.9588 63.7361H72.6448C72.0696 63.7361 71.6051 63.2671 71.6051 62.6912V36.2754C71.6051 35.6973 72.0718 35.2305 72.6448 35.2305V35.2284ZM72.6448 65.8716H74.9588C75.534 65.8716 75.9986 66.3406 75.9986 66.9164V87.8506C75.9986 88.4286 75.5319 88.8954 74.9588 88.8954H72.6448C72.0696 88.8954 71.6051 88.4264 71.6051 87.8506V66.9164C71.6051 66.3384 72.0718 65.8716 72.6448 65.8716ZM79.1135 34.2599H81.4275C82.0027 34.2599 82.4673 34.7288 82.4673 35.3047V46.5625C82.4673 47.1406 82.0006 47.6074 81.4275 47.6074H79.1135C78.5383 47.6074 78.0738 47.1384 78.0738 46.5625V35.3069C78.0738 34.7288 78.5405 34.262 79.1135 34.262V34.2599ZM79.1135 49.7429H81.4275C82.0027 49.7429 82.4673 50.2119 82.4673 50.7877V83.6603C82.4673 84.2383 82.0006 84.7051 81.4275 84.7051H79.1135C78.5383 84.7051 78.0738 84.2361 78.0738 83.6603V50.7899C78.0738 50.2119 78.5405 49.7451 79.1135 49.7451V49.7429ZM79.1135 86.8384H81.4275C82.0027 86.8384 82.4673 87.3074 82.4673 87.8833V93.9801C82.4673 94.5581 82.0006 95.0249 81.4275 95.0249H79.1135C78.5383 95.0249 78.0738 94.556 78.0738 93.9801V87.8833C78.0738 87.3052 78.5405 86.8384 79.1135 86.8384ZM85.6257 84.9036H87.9396C88.5149 84.9036 88.9794 85.3726 88.9794 85.9485V94.9486C88.9794 95.5267 88.5127 95.9935 87.9396 95.9935H85.6257C85.0504 95.9935 84.5859 95.5245 84.5859 94.9486V85.9485C84.5859 85.3704 85.0526 84.9036 85.6257 84.9036ZM85.6257 57.4866H87.9396C88.5149 57.4866 88.9794 57.9556 88.9794 58.5314V64.6304C88.9794 65.2084 88.5127 65.6753 87.9396 65.6753H85.6257C85.0504 65.6753 84.5859 65.2063 84.5859 64.6304V58.5314C84.5859 57.9534 85.0526 57.4866 85.6257 57.4866ZM85.6257 33.9392H87.9396C88.5149 33.9392 88.9794 34.4082 88.9794 34.984V54.3062C88.9794 54.8843 88.5127 55.3511 87.9396 55.3511H85.6257C85.0504 55.3511 84.5859 54.8821 84.5859 54.3062V34.984C84.5859 34.406 85.0526 33.9392 85.6257 33.9392ZM92.2268 35.5534H94.5407C95.116 35.5534 95.5805 36.0224 95.5805 36.5982V61.0814C95.5805 61.6594 95.1138 62.1262 94.5407 62.1262H92.2268C91.6515 62.1262 91.187 61.6573 91.187 61.0814V36.5982C91.187 36.0202 91.6537 35.5534 92.2268 35.5534ZM92.2268 90.0668H94.5407C95.116 90.0668 95.5805 90.5358 95.5805 91.1117V94.9508C95.5805 95.5288 95.1138 95.9956 94.5407 95.9956H92.2268C91.6515 95.9956 91.187 95.5266 91.187 94.9508V91.1117C91.187 90.5336 91.6537 90.0668 92.2268 90.0668ZM98.6477 37.4904H100.962C101.537 37.4904 102.001 37.9594 102.001 38.5352V44.6342C102.001 45.2123 101.535 45.6791 100.962 45.6791H98.6477C98.0725 45.6791 97.608 45.2101 97.608 44.6342V38.5352C97.608 37.9572 98.0747 37.4904 98.6477 37.4904ZM98.6477 47.8102H100.962C101.537 47.8102 102.001 48.2792 102.001 48.8551V60.4357C102.001 61.0138 101.535 61.4806 100.962 61.4806H98.6477C98.0725 61.4806 97.608 61.0116 97.608 60.4357V48.8551C97.608 48.277 98.0747 47.8102 98.6477 47.8102ZM105.242 39.1002H107.556C108.132 39.1002 108.596 39.5692 108.596 40.1451V43.9842C108.596 44.5622 108.129 45.029 107.556 45.029H105.242C104.667 45.029 104.203 44.5601 104.203 43.9842V40.1451C104.203 39.567 104.669 39.1002 105.242 39.1002ZM105.242 46.8417H107.556C108.132 46.8417 108.596 47.3107 108.596 47.8866V51.4029C108.596 51.9809 108.129 52.4477 107.556 52.4477H105.242C104.667 52.4477 104.203 51.9787 104.203 51.4029V47.8866C104.203 47.3085 104.669 46.8417 105.242 46.8417ZM105.242 54.2604H107.556C108.132 54.2604 108.596 54.7294 108.596 55.3052V61.0792C108.596 61.6573 108.129 62.1241 107.556 62.1241H105.242C104.667 62.1241 104.203 61.6551 104.203 61.0792V55.3052C104.203 54.7272 104.669 54.2604 105.242 54.2604ZM111.754 41.0372H114.068C114.644 41.0372 115.108 41.5062 115.108 42.0821V62.0499C115.108 62.6279 114.641 63.0947 114.068 63.0947H111.754C111.179 63.0947 110.715 62.6258 110.715 62.0499V42.0799C110.715 41.5018 111.181 41.035 111.754 41.035V41.0372ZM118.225 46.8417H120.539C121.115 46.8417 121.579 47.3107 121.579 47.8866V61.402C121.579 61.9801 121.112 62.4469 120.539 62.4469H118.225C117.65 62.4469 117.186 61.9779 117.186 61.402V47.8866C117.186 47.3085 117.652 46.8417 118.225 46.8417ZM124.646 54.2604H126.96C127.535 54.2604 128 54.7294 128 55.3052V59.1444C128 59.7224 127.533 60.1892 126.96 60.1892H124.646C124.071 60.1892 123.606 59.7202 123.606 59.1444V55.3052C123.606 54.7272 124.073 54.2604 124.646 54.2604Z" />
</svg>
